<svg width="48" height="36" viewBox="0 0 48 36" fill="none" xmlns="http://www.w3.org/2000/svg">
<path d="M46.8737 10.5H41.2609L39.7009 6.6C38.0978 2.59031 34.2718 0 29.9528 0H18.0465C13.7284 0 9.90153 2.59031 8.29747 6.6L6.73747 10.5H1.1256C0.393409 10.5 -0.143778 11.1881 0.0343465 11.8978L0.596847 14.1478C0.721534 14.6484 1.17153 15 1.6881 15H3.56966C2.3106 16.0997 1.49966 17.6981 1.49966 19.5V24C1.49966 25.5113 2.07716 26.8753 2.99966 27.9309V33C2.99966 34.6566 4.3431 36 5.99966 36H8.99966C10.6562 36 11.9997 34.6566 11.9997 33V30H35.9997V33C35.9997 34.6566 37.3431 36 38.9997 36H41.9997C43.6562 36 44.9997 34.6566 44.9997 33V27.9309C45.9222 26.8762 46.4997 25.5122 46.4997 24V19.5C46.4997 17.6981 45.6887 16.0997 44.4306 15H46.3122C46.8287 15 47.2787 14.6484 47.4034 14.1478L47.9659 11.8978C48.1431 11.1881 47.6059 10.5 46.8737 10.5ZM13.8681 8.82844C14.5515 7.12031 16.2062 6 18.0465 6H29.9528C31.7931 6 33.4478 7.12031 34.1312 8.82844L35.9997 13.5H11.9997L13.8681 8.82844ZM8.99966 23.9812C7.19966 23.9812 5.99966 22.785 5.99966 20.9906C5.99966 19.1962 7.19966 18 8.99966 18C10.7997 18 13.4997 20.6916 13.4997 22.4859C13.4997 24.2803 10.7997 23.9812 8.99966 23.9812ZM38.9997 23.9812C37.1997 23.9812 34.4997 24.2803 34.4997 22.4859C34.4997 20.6916 37.1997 18 38.9997 18C40.7997 18 41.9997 19.1962 41.9997 20.9906C41.9997 22.785 40.7997 23.9812 38.9997 23.9812Z" fill="#2563EB"/>
</svg>
