<svg width="30" height="27" viewBox="0 0 30 27" fill="none" xmlns="http://www.w3.org/2000/svg">
<path d="M8.1803 1.0801C8.11498 1.01455 8.03736 0.962535 7.95189 0.927047C7.86643 0.891559 7.7748 0.873291 7.68226 0.873291C7.58972 0.873291 7.49808 0.891559 7.41262 0.927047C7.32715 0.962535 7.24953 1.01455 7.18421 1.0801L3.45296 4.78967L2.12288 3.49357C2.05756 3.42802 1.97994 3.37601 1.89447 3.34052C1.80901 3.30504 1.71738 3.28677 1.62483 3.28677C1.53229 3.28677 1.44066 3.30504 1.3552 3.34052C1.26973 3.37601 1.19211 3.42802 1.12679 3.49357L0.206865 4.41467C0.141316 4.47999 0.0893052 4.55761 0.0538171 4.64307C0.0183289 4.72854 6.10352e-05 4.82017 6.10352e-05 4.91271C6.10352e-05 5.00525 0.0183289 5.09688 0.0538171 5.18235C0.0893052 5.26782 0.141316 5.34544 0.206865 5.41076L2.99534 8.1881C3.13453 8.32041 3.31922 8.39419 3.51126 8.39419C3.7033 8.39419 3.88799 8.32041 4.02718 8.1881L4.94065 7.27287L9.17112 3.04299C9.30293 2.91107 9.37741 2.7325 9.3784 2.54602C9.37939 2.35954 9.3068 2.1802 9.1764 2.04689L8.1803 1.0801ZM8.1803 10.4076C8.11498 10.3421 8.03736 10.2901 7.95189 10.2546C7.86643 10.2191 7.7748 10.2008 7.68226 10.2008C7.58972 10.2008 7.49808 10.2191 7.41262 10.2546C7.32715 10.2901 7.24953 10.3421 7.18421 10.4076L3.45296 14.1412L2.12288 12.8463C2.05756 12.7808 1.97994 12.7287 1.89447 12.6933C1.80901 12.6578 1.71738 12.6395 1.62483 12.6395C1.53229 12.6395 1.44066 12.6578 1.3552 12.6933C1.26973 12.7287 1.19211 12.7808 1.12679 12.8463L0.206865 13.7656C0.141316 13.831 0.0893052 13.9086 0.0538171 13.9941C0.0183289 14.0795 6.10352e-05 14.1711 6.10352e-05 14.2637C6.10352e-05 14.3562 0.0183289 14.4479 0.0538171 14.5333C0.0893052 14.6188 0.141316 14.6964 0.206865 14.7617L2.98831 17.5449C3.1274 17.6772 3.312 17.751 3.50394 17.751C3.69587 17.751 3.88047 17.6772 4.01956 17.5449L4.93948 16.6256L9.16995 12.394C9.30126 12.263 9.37549 12.0854 9.37647 11.8999C9.37746 11.7145 9.30513 11.5361 9.17523 11.4037L8.1803 10.4076ZM3.75003 20.5625C2.19788 20.5625 0.902959 21.8223 0.902959 23.375C0.902959 24.9278 2.19905 26.1875 3.75003 26.1875C4.49595 26.1875 5.21132 25.8912 5.73877 25.3638C6.26621 24.8363 6.56253 24.1209 6.56253 23.375C6.56253 22.6291 6.26621 21.9137 5.73877 21.3863C5.21132 20.8588 4.49595 20.5625 3.75003 20.5625ZM29.0625 21.5H12.1875C11.9389 21.5 11.7004 21.5988 11.5246 21.7746C11.3488 21.9504 11.25 22.1889 11.25 22.4375V24.3125C11.25 24.5612 11.3488 24.7996 11.5246 24.9754C11.7004 25.1512 11.9389 25.25 12.1875 25.25H29.0625C29.3112 25.25 29.5496 25.1512 29.7254 24.9754C29.9013 24.7996 30 24.5612 30 24.3125V22.4375C30 22.1889 29.9013 21.9504 29.7254 21.7746C29.5496 21.5988 29.3112 21.5 29.0625 21.5ZM29.0625 2.75002H12.1875C11.9389 2.75002 11.7004 2.84879 11.5246 3.02461C11.3488 3.20042 11.25 3.43888 11.25 3.68752V5.56252C11.25 5.81116 11.3488 6.04961 11.5246 6.22543C11.7004 6.40125 11.9389 6.50002 12.1875 6.50002H29.0625C29.3112 6.50002 29.5496 6.40125 29.7254 6.22543C29.9013 6.04961 30 5.81116 30 5.56252V3.68752C30 3.43888 29.9013 3.20042 29.7254 3.02461C29.5496 2.84879 29.3112 2.75002 29.0625 2.75002ZM29.0625 12.125H12.1875C11.9389 12.125 11.7004 12.2238 11.5246 12.3996C11.3488 12.5754 11.25 12.8139 11.25 13.0625V14.9375C11.25 15.1862 11.3488 15.4246 11.5246 15.6004C11.7004 15.7762 11.9389 15.875 12.1875 15.875H29.0625C29.3112 15.875 29.5496 15.7762 29.7254 15.6004C29.9013 15.4246 30 15.1862 30 14.9375V13.0625C30 12.8139 29.9013 12.5754 29.7254 12.3996C29.5496 12.2238 29.3112 12.125 29.0625 12.125Z" fill="#2563EB"/>
</svg>
