<svg width="48" height="48" viewBox="0 0 48 48" fill="none" xmlns="http://www.w3.org/2000/svg">
<path d="M46.9782 37.0969L36 26.1188C33.8344 23.9531 30.6 23.5313 27.9938 24.8156L18 14.8219V9L6.00005 0L4.87566e-05 6L9.00005 18H14.8219L24.8157 27.9938C23.5407 30.6 23.9532 33.8344 26.1188 36L37.0969 46.9781C38.4657 48.3469 40.6782 48.3469 42.0375 46.9781L46.9782 42.0375C48.3375 40.6687 48.3375 38.4563 46.9782 37.0969ZM31.0969 21.0938C33.75 21.0938 36.2438 22.125 38.1188 24L39.9375 25.8187C41.4188 25.1719 42.825 24.2719 44.0438 23.0531C47.5219 19.575 48.7032 14.6812 47.5969 10.2375C47.3907 9.39375 46.3313 9.10312 45.7125 9.72187L38.7375 16.6969L32.3719 15.6375L31.3125 9.27188L38.2875 2.29688C38.9063 1.67813 38.6063 0.61875 37.7532 0.403125C33.3094 -0.69375 28.4157 0.4875 24.9469 3.95625C22.275 6.62813 21.0188 10.1531 21.0844 13.6688L28.7813 21.3656C29.5407 21.1875 30.3282 21.0938 31.0969 21.0938ZM21.3563 28.7812L16.0407 23.4656L1.75317 37.7625C-0.590576 40.1062 -0.590576 43.9031 1.75317 46.2469C4.09692 48.5906 7.8938 48.5906 10.2375 46.2469L21.825 34.6594C21.1125 32.7938 20.8969 30.7594 21.3563 28.7812ZM6.00005 44.25C4.76255 44.25 3.75005 43.2375 3.75005 42C3.75005 40.7531 4.75317 39.75 6.00005 39.75C7.24692 39.75 8.25005 40.7531 8.25005 42C8.25005 43.2375 7.24692 44.25 6.00005 44.25Z" fill="#2563EB"/>
</svg>
