<svg width="32" height="32" viewBox="0 0 32 32" fill="none" xmlns="http://www.w3.org/2000/svg">
<path fill-rule="evenodd" clip-rule="evenodd" d="M13.72 4.35803L2.42669 25.9047C2.19385 26.3655 2.07065 26.888 2.06935 27.4202C2.06804 27.9523 2.18868 28.4756 2.41926 28.9379C2.64984 29.4002 2.98233 29.7855 3.38364 30.0553C3.78495 30.3252 4.24109 30.4703 4.70669 30.4761H27.2934C27.759 30.4703 28.2151 30.3252 28.6164 30.0553C29.0177 29.7855 29.3502 29.4002 29.5808 28.9379C29.8114 28.4756 29.932 27.9523 29.9307 27.4202C29.9294 26.888 29.8062 26.3655 29.5734 25.9047L18.28 4.35803C18.0423 3.91019 17.7077 3.53993 17.3083 3.28296C16.9089 3.02599 16.4583 2.89099 16 2.89099C15.5417 2.89099 15.0911 3.02599 14.6918 3.28296C14.2924 3.53993 13.9577 3.91019 13.72 4.35803Z" stroke="#A3AED0" stroke-width="2" stroke-linecap="round" stroke-linejoin="round"/>
<path d="M16 12.1904V18.2857" stroke="#A3AED0" stroke-width="2" stroke-linecap="round" stroke-linejoin="round"/>
</svg>
